<mxfile host="Electron" modified="2023-11-26T11:10:11.717Z" agent="Mozilla/5.0 (Windows NT 10.0; Win64; x64) AppleWebKit/537.36 (KHTML, like Gecko) draw.io/22.0.2 Chrome/114.0.5735.289 Electron/25.8.4 Safari/537.36" etag="SO0q9aEVLMhrz8B5vEgR" version="22.0.2" type="device" pages="4">
  <diagram name="CreaUtente" id="mTohjnEQQGtcdv9lY0mK">
    <mxGraphModel dx="1644" dy="854" grid="0" gridSize="10" guides="1" tooltips="1" connect="1" arrows="1" fold="1" page="0" pageScale="1" pageWidth="850" pageHeight="1100" math="0" shadow="0">
      <root>
        <mxCell id="0" />
        <mxCell id="1" parent="0" />
        <mxCell id="uYjpBzchgfZl1zaOBYw3-9" value="&lt;font style=&quot;font-size: 11px;&quot;&gt;SendAction(action: Action) : void&lt;/font&gt;" style="html=1;verticalAlign=bottom;endArrow=block;rounded=0;fontSize=9;entryX=-0.086;entryY=0.055;entryDx=0;entryDy=0;entryPerimeter=0;" parent="1" source="uYjpBzchgfZl1zaOBYw3-3" target="uYjpBzchgfZl1zaOBYw3-7" edge="1">
          <mxGeometry width="80" relative="1" as="geometry">
            <mxPoint x="240" y="180" as="sourcePoint" />
            <mxPoint x="410" y="180" as="targetPoint" />
            <Array as="points" />
          </mxGeometry>
        </mxCell>
        <mxCell id="uYjpBzchgfZl1zaOBYw3-2" value="" style="shape=umlLifeline;participant=umlActor;perimeter=lifelinePerimeter;whiteSpace=wrap;html=1;container=1;collapsible=0;recursiveResize=0;verticalAlign=top;spacingTop=36;outlineConnect=0;" parent="1" vertex="1">
          <mxGeometry x="50" y="80" width="20" height="866" as="geometry" />
        </mxCell>
        <mxCell id="uYjpBzchgfZl1zaOBYw3-3" value="Fragment_ListStaff" style="shape=umlLifeline;perimeter=lifelinePerimeter;whiteSpace=wrap;html=1;container=1;collapsible=0;recursiveResize=0;outlineConnect=0;fillColor=#FCFFB0;strokeColor=#D6B656;" parent="1" vertex="1">
          <mxGeometry x="180" y="80" width="110" height="875" as="geometry" />
        </mxCell>
        <mxCell id="uYjpBzchgfZl1zaOBYw3-4" value="" style="html=1;points=[];perimeter=orthogonalPerimeter;fillColor=#dae8fc;strokeColor=#6c8ebf;" parent="uYjpBzchgfZl1zaOBYw3-3" vertex="1">
          <mxGeometry x="50" y="80" width="10" height="207" as="geometry" />
        </mxCell>
        <mxCell id="-I5erxVSZNYtYrY_2M4p-46" value="" style="html=1;points=[];perimeter=orthogonalPerimeter;fillColor=#dae8fc;strokeColor=#6c8ebf;" parent="uYjpBzchgfZl1zaOBYw3-3" vertex="1">
          <mxGeometry x="50" y="780" width="10" height="50" as="geometry" />
        </mxCell>
        <mxCell id="-I5erxVSZNYtYrY_2M4p-47" value="&lt;div style=&quot;background-color:#282c34;color:#bbbbbb;font-family:&#39;JetBrains Mono&#39;,monospace;font-size:9.8pt;&quot;&gt;&lt;pre&gt;&lt;br&gt;&lt;/pre&gt;&lt;/div&gt;" style="html=1;verticalAlign=bottom;endArrow=block;rounded=0;fontSize=11;exitX=0.04;exitY=0.867;exitDx=0;exitDy=0;exitPerimeter=0;" parent="uYjpBzchgfZl1zaOBYw3-3" edge="1">
          <mxGeometry width="80" relative="1" as="geometry">
            <mxPoint x="384.4000000000001" y="783.0000000000001" as="sourcePoint" />
            <mxPoint x="61" y="783" as="targetPoint" />
          </mxGeometry>
        </mxCell>
        <mxCell id="-I5erxVSZNYtYrY_2M4p-48" value="goBack(indexFrom : int ) : void" style="edgeLabel;html=1;align=center;verticalAlign=middle;resizable=0;points=[];" parent="-I5erxVSZNYtYrY_2M4p-47" vertex="1" connectable="0">
          <mxGeometry x="0.0954" y="2" relative="1" as="geometry">
            <mxPoint x="3" y="-12" as="offset" />
          </mxGeometry>
        </mxCell>
        <mxCell id="uYjpBzchgfZl1zaOBYw3-5" value="&lt;font style=&quot;font-size: 11px;&quot;&gt;onClickAddNewMember() : void&lt;/font&gt;" style="html=1;verticalAlign=bottom;endArrow=block;rounded=0;strokeColor=default;labelBackgroundColor=none;fontSize=9;" parent="1" edge="1">
          <mxGeometry x="0.0013" width="80" relative="1" as="geometry">
            <mxPoint x="60.166666666666686" y="160" as="sourcePoint" />
            <mxPoint x="230" y="160" as="targetPoint" />
            <Array as="points">
              <mxPoint x="140" y="160" />
            </Array>
            <mxPoint as="offset" />
          </mxGeometry>
        </mxCell>
        <mxCell id="uYjpBzchgfZl1zaOBYw3-6" value="&lt;font size=&quot;1&quot; style=&quot;&quot;&gt;&lt;span style=&quot;font-size: 12px;&quot;&gt;Manager&lt;/span&gt;&lt;/font&gt;" style="shape=umlLifeline;perimeter=lifelinePerimeter;whiteSpace=wrap;html=1;container=1;collapsible=0;recursiveResize=0;outlineConnect=0;fillColor=#CCFCBB;strokeColor=#82B366;fontStyle=0" parent="1" vertex="1">
          <mxGeometry x="520" y="80" width="100" height="881" as="geometry" />
        </mxCell>
        <mxCell id="uYjpBzchgfZl1zaOBYw3-7" value="" style="html=1;points=[];perimeter=orthogonalPerimeter;fontSize=9;fillColor=#dae8fc;strokeColor=#6c8ebf;" parent="uYjpBzchgfZl1zaOBYw3-6" vertex="1">
          <mxGeometry x="45" y="100" width="10" height="40" as="geometry" />
        </mxCell>
        <mxCell id="-I5erxVSZNYtYrY_2M4p-16" value="" style="html=1;points=[];perimeter=orthogonalPerimeter;fontSize=11;fillColor=#dae8fc;strokeColor=#6c8ebf;" parent="uYjpBzchgfZl1zaOBYw3-6" vertex="1">
          <mxGeometry x="45" y="270" width="10" height="40" as="geometry" />
        </mxCell>
        <mxCell id="-I5erxVSZNYtYrY_2M4p-26" value="" style="html=1;points=[];perimeter=orthogonalPerimeter;fontSize=9;fillColor=#dae8fc;strokeColor=#6c8ebf;" parent="uYjpBzchgfZl1zaOBYw3-6" vertex="1">
          <mxGeometry x="45" y="405" width="10" height="40" as="geometry" />
        </mxCell>
        <mxCell id="uYjpBzchgfZl1zaOBYw3-10" value="ManagerActionFactory" style="shape=umlLifeline;perimeter=lifelinePerimeter;whiteSpace=wrap;html=1;container=1;collapsible=0;recursiveResize=0;outlineConnect=0;fontSize=12;fillColor=#CCFCBB;strokeColor=#82B366;fontStyle=0" parent="1" vertex="1">
          <mxGeometry x="716" y="80" width="130" height="862" as="geometry" />
        </mxCell>
        <mxCell id="uYjpBzchgfZl1zaOBYw3-11" value="" style="html=1;points=[];perimeter=orthogonalPerimeter;fontSize=11;fillColor=#dae8fc;strokeColor=#6c8ebf;" parent="uYjpBzchgfZl1zaOBYw3-10" vertex="1">
          <mxGeometry x="60" y="130" width="10" height="50" as="geometry" />
        </mxCell>
        <mxCell id="-I5erxVSZNYtYrY_2M4p-17" value="&lt;font style=&quot;font-size: 13px;&quot;&gt;&amp;nbsp;handleAction( action : Action&amp;nbsp;) : void&lt;/font&gt;" style="html=1;verticalAlign=bottom;endArrow=block;rounded=0;fontSize=11;" parent="uYjpBzchgfZl1zaOBYw3-10" edge="1">
          <mxGeometry width="80" relative="1" as="geometry">
            <mxPoint x="479.79999999999995" y="270" as="sourcePoint" />
            <mxPoint x="-140" y="270" as="targetPoint" />
          </mxGeometry>
        </mxCell>
        <mxCell id="-I5erxVSZNYtYrY_2M4p-28" value="" style="html=1;points=[];perimeter=orthogonalPerimeter;fontSize=11;fillColor=#dae8fc;strokeColor=#6c8ebf;" parent="uYjpBzchgfZl1zaOBYw3-10" vertex="1">
          <mxGeometry x="60" y="437" width="10" height="50" as="geometry" />
        </mxCell>
        <mxCell id="-I5erxVSZNYtYrY_2M4p-29" value="&lt;font style=&quot;font-size: 11px;&quot;&gt;HandleAction (action : Action ) : void&amp;nbsp;&lt;/font&gt;" style="html=1;verticalAlign=bottom;endArrow=block;rounded=0;fontSize=11;" parent="uYjpBzchgfZl1zaOBYw3-10" edge="1">
          <mxGeometry width="80" relative="1" as="geometry">
            <mxPoint x="-140" y="437" as="sourcePoint" />
            <mxPoint x="60" y="437" as="targetPoint" />
            <Array as="points">
              <mxPoint x="-90" y="437" />
            </Array>
          </mxGeometry>
        </mxCell>
        <mxCell id="uYjpBzchgfZl1zaOBYw3-15" value="&lt;font style=&quot;font-size: 11px;&quot;&gt;HandleAction (action : Action ) : void&amp;nbsp;&lt;/font&gt;" style="html=1;verticalAlign=bottom;endArrow=block;rounded=0;fontSize=11;" parent="1" edge="1">
          <mxGeometry width="80" relative="1" as="geometry">
            <mxPoint x="576" y="210" as="sourcePoint" />
            <mxPoint x="776" y="210" as="targetPoint" />
            <Array as="points">
              <mxPoint x="626" y="210" />
            </Array>
          </mxGeometry>
        </mxCell>
        <mxCell id="-I5erxVSZNYtYrY_2M4p-1" value="&lt;font style=&quot;font-size: 7px;&quot;&gt;Utente Loggato&lt;/font&gt;" style="text;html=1;align=center;verticalAlign=middle;resizable=0;points=[];autosize=1;strokeColor=none;fillColor=default;spacingTop=-6;spacingLeft=-4;spacingBottom=-4;spacingRight=-4;" parent="1" vertex="1">
          <mxGeometry x="30" y="120" width="60" height="10" as="geometry" />
        </mxCell>
        <mxCell id="-I5erxVSZNYtYrY_2M4p-5" value="ActionsStaff" style="shape=umlLifeline;perimeter=lifelinePerimeter;whiteSpace=wrap;html=1;container=1;collapsible=0;recursiveResize=0;outlineConnect=0;fontSize=12;fillColor=#CCFCBB;strokeColor=#82B366;fontStyle=0" parent="1" vertex="1">
          <mxGeometry x="926" y="80" width="130" height="814" as="geometry" />
        </mxCell>
        <mxCell id="-I5erxVSZNYtYrY_2M4p-6" value="" style="html=1;points=[];perimeter=orthogonalPerimeter;fontSize=11;fillColor=#dae8fc;strokeColor=#6c8ebf;" parent="-I5erxVSZNYtYrY_2M4p-5" vertex="1">
          <mxGeometry x="60" y="170" width="10" height="50" as="geometry" />
        </mxCell>
        <mxCell id="-I5erxVSZNYtYrY_2M4p-15" value="&lt;font style=&quot;font-size: 11px;&quot;&gt;handleAction(action : Action&amp;nbsp;) : void&lt;/font&gt;" style="html=1;verticalAlign=bottom;endArrow=block;rounded=0;fontSize=11;" parent="-I5erxVSZNYtYrY_2M4p-5" edge="1">
          <mxGeometry width="80" relative="1" as="geometry">
            <mxPoint x="70" y="210" as="sourcePoint" />
            <mxPoint x="270" y="210" as="targetPoint" />
            <Array as="points">
              <mxPoint x="120" y="210" />
            </Array>
          </mxGeometry>
        </mxCell>
        <mxCell id="-I5erxVSZNYtYrY_2M4p-30" value="" style="html=1;points=[];perimeter=orthogonalPerimeter;fontSize=11;fillColor=#dae8fc;strokeColor=#6c8ebf;" parent="-I5erxVSZNYtYrY_2M4p-5" vertex="1">
          <mxGeometry x="60" y="480" width="10" height="50" as="geometry" />
        </mxCell>
        <mxCell id="-I5erxVSZNYtYrY_2M4p-32" value="&lt;font style=&quot;font-size: 11px;&quot;&gt;MapAction( action : Action) : void&lt;/font&gt;" style="html=1;verticalAlign=bottom;endArrow=block;rounded=0;fontSize=11;" parent="-I5erxVSZNYtYrY_2M4p-5" edge="1">
          <mxGeometry width="80" relative="1" as="geometry">
            <mxPoint x="-140" y="480" as="sourcePoint" />
            <mxPoint x="60" y="480" as="targetPoint" />
            <Array as="points">
              <mxPoint x="-90" y="480" />
            </Array>
          </mxGeometry>
        </mxCell>
        <mxCell id="-I5erxVSZNYtYrY_2M4p-10" value="&lt;font style=&quot;font-size: 11px;&quot;&gt;MapAction( action : Action) : void&lt;/font&gt;" style="html=1;verticalAlign=bottom;endArrow=block;rounded=0;fontSize=11;" parent="1" edge="1">
          <mxGeometry width="80" relative="1" as="geometry">
            <mxPoint x="786" y="250" as="sourcePoint" />
            <mxPoint x="986" y="250" as="targetPoint" />
            <Array as="points">
              <mxPoint x="836" y="250" />
            </Array>
          </mxGeometry>
        </mxCell>
        <mxCell id="-I5erxVSZNYtYrY_2M4p-11" value="OpenNewStaff_ActionHandler" style="shape=umlLifeline;perimeter=lifelinePerimeter;whiteSpace=wrap;html=1;container=1;collapsible=0;recursiveResize=0;outlineConnect=0;fontSize=12;fillColor=#CCFCBB;strokeColor=#82B366;fontStyle=0" parent="1" vertex="1">
          <mxGeometry x="1116" y="80" width="170" height="814" as="geometry" />
        </mxCell>
        <mxCell id="-I5erxVSZNYtYrY_2M4p-13" value="" style="html=1;points=[];perimeter=orthogonalPerimeter;fontSize=11;fillColor=#dae8fc;strokeColor=#6c8ebf;" parent="-I5erxVSZNYtYrY_2M4p-11" vertex="1">
          <mxGeometry x="80" y="200" width="10" height="90" as="geometry" />
        </mxCell>
        <mxCell id="-I5erxVSZNYtYrY_2M4p-20" value="&lt;font style=&quot;font-size: 9px;&quot;&gt;changeOnMain( indexMain : int ) : void&lt;/font&gt;" style="html=1;verticalAlign=bottom;endArrow=block;rounded=0;fontSize=11;exitX=0.116;exitY=0.764;exitDx=0;exitDy=0;exitPerimeter=0;entryX=1.029;entryY=0.001;entryDx=0;entryDy=0;entryPerimeter=0;fontColor=default;labelBackgroundColor=none;" parent="1" source="-I5erxVSZNYtYrY_2M4p-16" target="-I5erxVSZNYtYrY_2M4p-23" edge="1">
          <mxGeometry x="-0.0021" width="80" relative="1" as="geometry">
            <mxPoint x="405.79999999999995" y="379.99999999999994" as="sourcePoint" />
            <mxPoint x="240" y="380" as="targetPoint" />
            <mxPoint as="offset" />
          </mxGeometry>
        </mxCell>
        <mxCell id="-I5erxVSZNYtYrY_2M4p-21" value="Fragment_NewStaffMember" style="shape=umlLifeline;perimeter=lifelinePerimeter;whiteSpace=wrap;html=1;container=1;collapsible=0;recursiveResize=0;outlineConnect=0;fillColor=#FCFFB0;strokeColor=#D6B656;" parent="1" vertex="1">
          <mxGeometry x="320" y="80" width="160" height="878" as="geometry" />
        </mxCell>
        <mxCell id="-I5erxVSZNYtYrY_2M4p-23" value="" style="html=1;points=[];perimeter=orthogonalPerimeter;fillColor=#dae8fc;strokeColor=#6c8ebf;" parent="-I5erxVSZNYtYrY_2M4p-21" vertex="1">
          <mxGeometry x="75" y="300" width="10" height="445" as="geometry" />
        </mxCell>
        <mxCell id="-I5erxVSZNYtYrY_2M4p-25" value="&lt;font style=&quot;font-size: 11px;&quot;&gt;onClickAddNewMember() : void&lt;/font&gt;" style="html=1;verticalAlign=bottom;endArrow=block;rounded=0;strokeColor=default;labelBackgroundColor=none;fontSize=9;" parent="1" target="-I5erxVSZNYtYrY_2M4p-21" edge="1">
          <mxGeometry x="0.0013" width="80" relative="1" as="geometry">
            <mxPoint x="62.996666666666684" y="471" as="sourcePoint" />
            <mxPoint x="232.83" y="471" as="targetPoint" />
            <Array as="points">
              <mxPoint x="142.83" y="471" />
            </Array>
            <mxPoint as="offset" />
          </mxGeometry>
        </mxCell>
        <mxCell id="-I5erxVSZNYtYrY_2M4p-27" value="&lt;font style=&quot;font-size: 11px;&quot;&gt;SendAction(action: Action) : void&lt;/font&gt;" style="html=1;verticalAlign=bottom;endArrow=block;rounded=0;fontSize=9;entryX=-0.086;entryY=0.055;entryDx=0;entryDy=0;entryPerimeter=0;exitX=1.114;exitY=0.423;exitDx=0;exitDy=0;exitPerimeter=0;" parent="1" target="-I5erxVSZNYtYrY_2M4p-26" edge="1">
          <mxGeometry width="80" relative="1" as="geometry">
            <mxPoint x="406" y="487" as="sourcePoint" />
            <mxPoint x="575" y="486" as="targetPoint" />
            <Array as="points" />
          </mxGeometry>
        </mxCell>
        <mxCell id="-I5erxVSZNYtYrY_2M4p-33" value="CreateStaff_ActionHandler" style="shape=umlLifeline;perimeter=lifelinePerimeter;whiteSpace=wrap;html=1;container=1;collapsible=0;recursiveResize=0;outlineConnect=0;fontSize=12;fillColor=#CCFCBB;strokeColor=#82B366;fontStyle=0" parent="1" vertex="1">
          <mxGeometry x="1345" y="80" width="170" height="824" as="geometry" />
        </mxCell>
        <mxCell id="-I5erxVSZNYtYrY_2M4p-34" value="" style="html=1;points=[];perimeter=orthogonalPerimeter;fontSize=11;fillColor=#dae8fc;strokeColor=#6c8ebf;" parent="-I5erxVSZNYtYrY_2M4p-33" vertex="1">
          <mxGeometry x="80" y="509" width="10" height="260" as="geometry" />
        </mxCell>
        <mxCell id="-I5erxVSZNYtYrY_2M4p-35" value="ServerCommunication" style="shape=umlLifeline;perimeter=lifelinePerimeter;whiteSpace=wrap;html=1;container=1;collapsible=0;recursiveResize=0;outlineConnect=0;fontSize=12;fillColor=#CCFCBB;strokeColor=#82B366;fontStyle=0" parent="1" vertex="1">
          <mxGeometry x="1656" y="80" width="170" height="829" as="geometry" />
        </mxCell>
        <mxCell id="-I5erxVSZNYtYrY_2M4p-36" value="" style="html=1;points=[];perimeter=orthogonalPerimeter;fontSize=11;fillColor=#dae8fc;strokeColor=#6c8ebf;" parent="-I5erxVSZNYtYrY_2M4p-35" vertex="1">
          <mxGeometry x="80" y="576" width="10" height="90" as="geometry" />
        </mxCell>
        <mxCell id="-I5erxVSZNYtYrY_2M4p-38" value="&lt;div style=&quot;background-color:#282c34;color:#bbbbbb;font-family:&#39;JetBrains Mono&#39;,monospace;font-size:9.8pt;&quot;&gt;&lt;pre&gt;&lt;br&gt;&lt;/pre&gt;&lt;/div&gt;" style="html=1;verticalAlign=bottom;endArrow=block;rounded=0;fontSize=11;exitX=0.08;exitY=0.874;exitDx=0;exitDy=0;exitPerimeter=0;dashed=1;" parent="-I5erxVSZNYtYrY_2M4p-35" target="-I5erxVSZNYtYrY_2M4p-34" edge="1">
          <mxGeometry width="80" relative="1" as="geometry">
            <mxPoint x="80" y="666" as="sourcePoint" />
            <mxPoint x="-105.79999999999995" y="666.0799999999999" as="targetPoint" />
          </mxGeometry>
        </mxCell>
        <mxCell id="-I5erxVSZNYtYrY_2M4p-39" value="return&amp;nbsp; jsonBODY" style="edgeLabel;html=1;align=center;verticalAlign=middle;resizable=0;points=[];" parent="-I5erxVSZNYtYrY_2M4p-38" vertex="1" connectable="0">
          <mxGeometry x="0.0954" y="2" relative="1" as="geometry">
            <mxPoint x="3" y="-12" as="offset" />
          </mxGeometry>
        </mxCell>
        <mxCell id="-I5erxVSZNYtYrY_2M4p-37" value="&lt;font style=&quot;font-size: 9px;&quot;&gt;sendNewStuffToServer( newUtente : Utente, context : Context ) : bool&lt;/font&gt;" style="html=1;verticalAlign=bottom;endArrow=block;rounded=0;fontSize=11;" parent="1" target="-I5erxVSZNYtYrY_2M4p-35" edge="1">
          <mxGeometry width="80" relative="1" as="geometry">
            <mxPoint x="1435" y="657" as="sourcePoint" />
            <mxPoint x="1870" y="655" as="targetPoint" />
            <Array as="points">
              <mxPoint x="1656" y="657" />
            </Array>
          </mxGeometry>
        </mxCell>
        <mxCell id="-I5erxVSZNYtYrY_2M4p-31" value="&lt;font style=&quot;font-size: 11px;&quot;&gt;handleAction(action : Action&amp;nbsp;) : void&lt;/font&gt;" style="html=1;verticalAlign=bottom;endArrow=block;rounded=0;fontSize=11;entryX=0.213;entryY=0.04;entryDx=0;entryDy=0;entryPerimeter=0;" parent="1" target="-I5erxVSZNYtYrY_2M4p-34" edge="1">
          <mxGeometry width="80" relative="1" as="geometry">
            <mxPoint x="997" y="596" as="sourcePoint" />
            <mxPoint x="1430" y="596" as="targetPoint" />
            <Array as="points">
              <mxPoint x="1211" y="596" />
            </Array>
          </mxGeometry>
        </mxCell>
        <mxCell id="-I5erxVSZNYtYrY_2M4p-40" value="&lt;div style=&quot;background-color:#282c34;color:#bbbbbb;font-family:&#39;JetBrains Mono&#39;,monospace;font-size:9.8pt;&quot;&gt;&lt;pre&gt;&lt;br&gt;&lt;/pre&gt;&lt;/div&gt;" style="html=1;verticalAlign=bottom;endArrow=block;rounded=0;fontSize=11;" parent="1" edge="1">
          <mxGeometry width="80" relative="1" as="geometry">
            <mxPoint x="1425" y="788" as="sourcePoint" />
            <mxPoint x="406" y="788" as="targetPoint" />
          </mxGeometry>
        </mxCell>
        <mxCell id="-I5erxVSZNYtYrY_2M4p-41" value="action.callBack( true )" style="edgeLabel;html=1;align=center;verticalAlign=middle;resizable=0;points=[];" parent="-I5erxVSZNYtYrY_2M4p-40" vertex="1" connectable="0">
          <mxGeometry x="0.0954" y="2" relative="1" as="geometry">
            <mxPoint x="3" y="-12" as="offset" />
          </mxGeometry>
        </mxCell>
        <mxCell id="-I5erxVSZNYtYrY_2M4p-42" value="" style="html=1;points=[];perimeter=orthogonalPerimeter;fontSize=9;fillColor=#dae8fc;strokeColor=#6c8ebf;" parent="1" vertex="1">
          <mxGeometry x="565" y="828" width="10" height="40" as="geometry" />
        </mxCell>
        <mxCell id="-I5erxVSZNYtYrY_2M4p-43" value="&lt;div style=&quot;background-color:#282c34;color:#bbbbbb;font-family:&#39;JetBrains Mono&#39;,monospace;font-size:9.8pt;&quot;&gt;&lt;pre&gt;&lt;br&gt;&lt;/pre&gt;&lt;/div&gt;" style="html=1;verticalAlign=bottom;endArrow=block;rounded=0;fontSize=11;exitX=0.04;exitY=0.867;exitDx=0;exitDy=0;exitPerimeter=0;entryX=1.093;entryY=0.002;entryDx=0;entryDy=0;entryPerimeter=0;" parent="1" target="-I5erxVSZNYtYrY_2M4p-42" edge="1">
          <mxGeometry width="80" relative="1" as="geometry">
            <mxPoint x="1425.4" y="830.4200000000001" as="sourcePoint" />
            <mxPoint x="406" y="829" as="targetPoint" />
          </mxGeometry>
        </mxCell>
        <mxCell id="-I5erxVSZNYtYrY_2M4p-44" value="action.getManager.goBack( true )" style="edgeLabel;html=1;align=center;verticalAlign=middle;resizable=0;points=[];" parent="-I5erxVSZNYtYrY_2M4p-43" vertex="1" connectable="0">
          <mxGeometry x="0.0954" y="2" relative="1" as="geometry">
            <mxPoint x="3" y="-12" as="offset" />
          </mxGeometry>
        </mxCell>
      </root>
    </mxGraphModel>
  </diagram>
  <diagram id="zgLJ-TTIRDkOzTL8noTR" name="EliminaCategoria">
    <mxGraphModel dx="1404" dy="854" grid="0" gridSize="10" guides="1" tooltips="1" connect="1" arrows="1" fold="1" page="0" pageScale="1" pageWidth="850" pageHeight="1100" math="0" shadow="0">
      <root>
        <mxCell id="0" />
        <mxCell id="1" parent="0" />
        <mxCell id="_dNVHrDylbjXx8L52vPx-41" value="sendDeleteCategoryToServer( id_category: int , id_restaurant : int ) : bool" style="html=1;verticalAlign=bottom;endArrow=block;rounded=0;fontSize=11;entryX=-0.015;entryY=0.011;entryDx=0;entryDy=0;entryPerimeter=0;" parent="1" target="_dNVHrDylbjXx8L52vPx-38" edge="1">
          <mxGeometry width="80" relative="1" as="geometry">
            <mxPoint x="1263.7307692307693" y="379" as="sourcePoint" />
            <mxPoint x="1803.5" y="379" as="targetPoint" />
            <Array as="points" />
          </mxGeometry>
        </mxCell>
        <mxCell id="pRpZ190RGfy-yZSfEw6o-2" value="Adapter_Category" style="shape=umlLifeline;perimeter=lifelinePerimeter;whiteSpace=wrap;html=1;container=1;collapsible=0;recursiveResize=0;outlineConnect=0;fillColor=#FCFFB0;strokeColor=#D6B656;" parent="1" vertex="1">
          <mxGeometry x="423" y="80" width="110" height="440" as="geometry" />
        </mxCell>
        <mxCell id="pRpZ190RGfy-yZSfEw6o-3" value="" style="html=1;points=[];perimeter=orthogonalPerimeter;fillColor=#dae8fc;strokeColor=#6c8ebf;" parent="pRpZ190RGfy-yZSfEw6o-2" vertex="1">
          <mxGeometry x="50" y="80" width="10" height="330" as="geometry" />
        </mxCell>
        <mxCell id="_dNVHrDylbjXx8L52vPx-1" value="" style="shape=umlLifeline;participant=umlActor;perimeter=lifelinePerimeter;whiteSpace=wrap;html=1;container=1;collapsible=0;recursiveResize=0;verticalAlign=top;spacingTop=36;outlineConnect=0;" parent="1" vertex="1">
          <mxGeometry x="50" y="80" width="20" height="440" as="geometry" />
        </mxCell>
        <mxCell id="_dNVHrDylbjXx8L52vPx-2" value="Fragment_ListCategory" style="shape=umlLifeline;perimeter=lifelinePerimeter;whiteSpace=wrap;html=1;container=1;collapsible=0;recursiveResize=0;outlineConnect=0;fillColor=#FCFFB0;strokeColor=#D6B656;" parent="1" vertex="1">
          <mxGeometry x="180" y="80" width="130" height="440" as="geometry" />
        </mxCell>
        <mxCell id="_dNVHrDylbjXx8L52vPx-3" value="" style="html=1;points=[];perimeter=orthogonalPerimeter;fillColor=#dae8fc;strokeColor=#6c8ebf;" parent="_dNVHrDylbjXx8L52vPx-2" vertex="1">
          <mxGeometry x="60" y="80" width="10" height="340" as="geometry" />
        </mxCell>
        <mxCell id="pRpZ190RGfy-yZSfEw6o-1" value="onClickDeleteCategory()&amp;nbsp;: void" style="html=1;verticalAlign=bottom;endArrow=block;rounded=0;strokeColor=default;labelBackgroundColor=none;fontSize=9;entryX=-0.195;entryY=0.103;entryDx=0;entryDy=0;entryPerimeter=0;" parent="_dNVHrDylbjXx8L52vPx-2" edge="1">
          <mxGeometry x="0.0013" width="80" relative="1" as="geometry">
            <mxPoint x="-119.83333333333331" y="164" as="sourcePoint" />
            <mxPoint x="58.049999999999955" y="163.74000000000024" as="targetPoint" />
            <Array as="points">
              <mxPoint x="-40" y="164" />
            </Array>
            <mxPoint as="offset" />
          </mxGeometry>
        </mxCell>
        <mxCell id="_dNVHrDylbjXx8L52vPx-7" value="onClickDeleteCategories()&amp;nbsp;: void" style="html=1;verticalAlign=bottom;endArrow=block;rounded=0;strokeColor=default;labelBackgroundColor=none;fontSize=9;entryX=0.016;entryY=0;entryDx=0;entryDy=0;entryPerimeter=0;" parent="1" target="_dNVHrDylbjXx8L52vPx-3" edge="1">
          <mxGeometry x="0.0013" width="80" relative="1" as="geometry">
            <mxPoint x="60.166666666666686" y="160" as="sourcePoint" />
            <mxPoint x="230" y="160" as="targetPoint" />
            <Array as="points">
              <mxPoint x="140" y="160" />
            </Array>
            <mxPoint as="offset" />
          </mxGeometry>
        </mxCell>
        <mxCell id="_dNVHrDylbjXx8L52vPx-8" value="&lt;font size=&quot;1&quot; style=&quot;&quot;&gt;&lt;span style=&quot;font-size: 12px;&quot;&gt;Manager&lt;/span&gt;&lt;/font&gt;" style="shape=umlLifeline;perimeter=lifelinePerimeter;whiteSpace=wrap;html=1;container=1;collapsible=0;recursiveResize=0;outlineConnect=0;fillColor=#CCFCBB;strokeColor=#82B366;fontStyle=0" parent="1" vertex="1">
          <mxGeometry x="583" y="80" width="100" height="440" as="geometry" />
        </mxCell>
        <mxCell id="_dNVHrDylbjXx8L52vPx-9" value="" style="html=1;points=[];perimeter=orthogonalPerimeter;fontSize=9;fillColor=#dae8fc;strokeColor=#6c8ebf;" parent="_dNVHrDylbjXx8L52vPx-8" vertex="1">
          <mxGeometry x="45" y="172" width="10" height="40" as="geometry" />
        </mxCell>
        <mxCell id="_dNVHrDylbjXx8L52vPx-12" value="&lt;font style=&quot;font-size: 11px;&quot;&gt;SendAction(action: Action) : void&lt;/font&gt;" style="html=1;verticalAlign=bottom;endArrow=block;rounded=0;fontSize=9;" parent="1" edge="1">
          <mxGeometry width="80" relative="1" as="geometry">
            <mxPoint x="250" y="258" as="sourcePoint" />
            <mxPoint x="630" y="258" as="targetPoint" />
            <Array as="points" />
          </mxGeometry>
        </mxCell>
        <mxCell id="_dNVHrDylbjXx8L52vPx-13" value="ManagerActionFactory" style="shape=umlLifeline;perimeter=lifelinePerimeter;whiteSpace=wrap;html=1;container=1;collapsible=0;recursiveResize=0;outlineConnect=0;fontSize=12;fillColor=#CCFCBB;strokeColor=#82B366;fontStyle=0" parent="1" vertex="1">
          <mxGeometry x="779" y="80" width="130" height="440" as="geometry" />
        </mxCell>
        <mxCell id="_dNVHrDylbjXx8L52vPx-14" value="" style="html=1;points=[];perimeter=orthogonalPerimeter;fontSize=11;fillColor=#dae8fc;strokeColor=#6c8ebf;" parent="_dNVHrDylbjXx8L52vPx-13" vertex="1">
          <mxGeometry x="60" y="202" width="10" height="50" as="geometry" />
        </mxCell>
        <mxCell id="_dNVHrDylbjXx8L52vPx-15" value="&lt;font style=&quot;font-size: 13px;&quot;&gt;action.callBack( id_category )&lt;span style=&quot;white-space: pre;&quot;&gt;&#x9;&lt;/span&gt;&lt;/font&gt;" style="html=1;verticalAlign=bottom;endArrow=block;rounded=0;fontSize=11;" parent="_dNVHrDylbjXx8L52vPx-13" edge="1">
          <mxGeometry width="80" relative="1" as="geometry">
            <mxPoint x="479.79999999999995" y="354" as="sourcePoint" />
            <mxPoint x="-529" y="354" as="targetPoint" />
          </mxGeometry>
        </mxCell>
        <mxCell id="_dNVHrDylbjXx8L52vPx-18" value="&lt;font style=&quot;font-size: 11px;&quot;&gt;HandleAction (action : Action ) : void&amp;nbsp;&lt;/font&gt;" style="html=1;verticalAlign=bottom;endArrow=block;rounded=0;fontSize=11;" parent="1" edge="1">
          <mxGeometry width="80" relative="1" as="geometry">
            <mxPoint x="639" y="282" as="sourcePoint" />
            <mxPoint x="839" y="282" as="targetPoint" />
            <Array as="points">
              <mxPoint x="689" y="282" />
            </Array>
          </mxGeometry>
        </mxCell>
        <mxCell id="_dNVHrDylbjXx8L52vPx-20" value="&lt;font style=&quot;font-size: 7px;&quot;&gt;Utente Loggato&lt;/font&gt;" style="text;html=1;align=center;verticalAlign=middle;resizable=0;points=[];autosize=1;strokeColor=none;fillColor=default;spacingTop=-6;spacingLeft=-4;spacingBottom=-4;spacingRight=-4;" parent="1" vertex="1">
          <mxGeometry x="30" y="120" width="60" height="10" as="geometry" />
        </mxCell>
        <mxCell id="_dNVHrDylbjXx8L52vPx-21" value="ActionsListCategory" style="shape=umlLifeline;perimeter=lifelinePerimeter;whiteSpace=wrap;html=1;container=1;collapsible=0;recursiveResize=0;outlineConnect=0;fontSize=12;fillColor=#CCFCBB;strokeColor=#82B366;fontStyle=0" parent="1" vertex="1">
          <mxGeometry x="989" y="80" width="130" height="440" as="geometry" />
        </mxCell>
        <mxCell id="_dNVHrDylbjXx8L52vPx-22" value="" style="html=1;points=[];perimeter=orthogonalPerimeter;fontSize=11;fillColor=#dae8fc;strokeColor=#6c8ebf;" parent="_dNVHrDylbjXx8L52vPx-21" vertex="1">
          <mxGeometry x="60" y="242" width="10" height="50" as="geometry" />
        </mxCell>
        <mxCell id="_dNVHrDylbjXx8L52vPx-23" value="&lt;font style=&quot;font-size: 11px;&quot;&gt;handleAction(action : Action&amp;nbsp;) : void&lt;/font&gt;" style="html=1;verticalAlign=bottom;endArrow=block;rounded=0;fontSize=11;" parent="_dNVHrDylbjXx8L52vPx-21" edge="1">
          <mxGeometry width="80" relative="1" as="geometry">
            <mxPoint x="70" y="282" as="sourcePoint" />
            <mxPoint x="270" y="282" as="targetPoint" />
            <Array as="points">
              <mxPoint x="120" y="282" />
            </Array>
          </mxGeometry>
        </mxCell>
        <mxCell id="_dNVHrDylbjXx8L52vPx-26" value="&lt;font style=&quot;font-size: 11px;&quot;&gt;MapAction( action : Action) : void&lt;/font&gt;" style="html=1;verticalAlign=bottom;endArrow=block;rounded=0;fontSize=11;" parent="1" edge="1">
          <mxGeometry width="80" relative="1" as="geometry">
            <mxPoint x="849" y="322" as="sourcePoint" />
            <mxPoint x="1049" y="322" as="targetPoint" />
            <Array as="points">
              <mxPoint x="899" y="322" />
            </Array>
          </mxGeometry>
        </mxCell>
        <mxCell id="_dNVHrDylbjXx8L52vPx-27" value="DeleteCategory_ActionHandler" style="shape=umlLifeline;perimeter=lifelinePerimeter;whiteSpace=wrap;html=1;container=1;collapsible=0;recursiveResize=0;outlineConnect=0;fontSize=12;fillColor=#CCFCBB;strokeColor=#82B366;fontStyle=0" parent="1" vertex="1">
          <mxGeometry x="1179" y="80" width="170" height="440" as="geometry" />
        </mxCell>
        <mxCell id="_dNVHrDylbjXx8L52vPx-28" value="" style="html=1;points=[];perimeter=orthogonalPerimeter;fontSize=11;fillColor=#dae8fc;strokeColor=#6c8ebf;" parent="_dNVHrDylbjXx8L52vPx-27" vertex="1">
          <mxGeometry x="80" y="272" width="10" height="98" as="geometry" />
        </mxCell>
        <mxCell id="_dNVHrDylbjXx8L52vPx-33" value="deleteItemFromRecycle(id_category : integer)&amp;nbsp;: void" style="html=1;verticalAlign=bottom;endArrow=block;rounded=0;strokeColor=default;labelBackgroundColor=none;fontSize=9;entryX=0.081;entryY=0.941;entryDx=0;entryDy=0;entryPerimeter=0;" parent="1" target="pRpZ190RGfy-yZSfEw6o-3" edge="1">
          <mxGeometry x="0.0013" width="80" relative="1" as="geometry">
            <mxPoint x="250" y="471" as="sourcePoint" />
            <mxPoint x="470" y="471" as="targetPoint" />
            <Array as="points" />
            <mxPoint as="offset" />
          </mxGeometry>
        </mxCell>
        <mxCell id="_dNVHrDylbjXx8L52vPx-37" value="ServerCommunication" style="shape=umlLifeline;perimeter=lifelinePerimeter;whiteSpace=wrap;html=1;container=1;collapsible=0;recursiveResize=0;outlineConnect=0;fontSize=12;fillColor=#CCFCBB;strokeColor=#82B366;fontStyle=0" parent="1" vertex="1">
          <mxGeometry x="1583" y="80" width="170" height="400" as="geometry" />
        </mxCell>
        <mxCell id="_dNVHrDylbjXx8L52vPx-38" value="" style="html=1;points=[];perimeter=orthogonalPerimeter;fontSize=11;fillColor=#dae8fc;strokeColor=#6c8ebf;" parent="_dNVHrDylbjXx8L52vPx-37" vertex="1">
          <mxGeometry x="80" y="298" width="10" height="90" as="geometry" />
        </mxCell>
        <mxCell id="_dNVHrDylbjXx8L52vPx-39" value="&lt;div style=&quot;background-color:#282c34;color:#bbbbbb;font-family:&#39;JetBrains Mono&#39;,monospace;font-size:9.8pt;&quot;&gt;&lt;pre&gt;&lt;br&gt;&lt;/pre&gt;&lt;/div&gt;" style="html=1;verticalAlign=bottom;endArrow=block;rounded=0;fontSize=11;exitX=0.08;exitY=0.874;exitDx=0;exitDy=0;exitPerimeter=0;dashed=1;" parent="_dNVHrDylbjXx8L52vPx-37" edge="1">
          <mxGeometry width="80" relative="1" as="geometry">
            <mxPoint x="80" y="346" as="sourcePoint" />
            <mxPoint x="-310" y="346" as="targetPoint" />
          </mxGeometry>
        </mxCell>
        <mxCell id="_dNVHrDylbjXx8L52vPx-40" value="return&amp;nbsp; jsonBODY" style="edgeLabel;html=1;align=center;verticalAlign=middle;resizable=0;points=[];" parent="_dNVHrDylbjXx8L52vPx-39" vertex="1" connectable="0">
          <mxGeometry x="0.0954" y="2" relative="1" as="geometry">
            <mxPoint x="3" y="-12" as="offset" />
          </mxGeometry>
        </mxCell>
      </root>
    </mxGraphModel>
  </diagram>
  <diagram id="s3-SNqz5heYwG2Yw8kUS" name="ModificaInfoRistorante">
    <mxGraphModel dx="2553" dy="2653" grid="1" gridSize="10" guides="1" tooltips="1" connect="1" arrows="1" fold="1" page="1" pageScale="1" pageWidth="850" pageHeight="1100" math="0" shadow="0">
      <root>
        <mxCell id="0" />
        <mxCell id="1" parent="0" />
        <mxCell id="n0NTn44MoIhT98F6Jfsc-1" value="" style="shape=umlLifeline;participant=umlActor;perimeter=lifelinePerimeter;whiteSpace=wrap;html=1;container=1;collapsible=0;recursiveResize=0;verticalAlign=top;spacingTop=36;outlineConnect=0;" parent="1" vertex="1">
          <mxGeometry x="50" y="80" width="20" height="866" as="geometry" />
        </mxCell>
        <mxCell id="n0NTn44MoIhT98F6Jfsc-2" value="Fragment_AccountInfo" style="shape=umlLifeline;perimeter=lifelinePerimeter;whiteSpace=wrap;html=1;container=1;collapsible=0;recursiveResize=0;outlineConnect=0;fillColor=#FCFFB0;strokeColor=#D6B656;" parent="1" vertex="1">
          <mxGeometry x="170" y="80" width="130" height="875" as="geometry" />
        </mxCell>
        <mxCell id="n0NTn44MoIhT98F6Jfsc-3" value="" style="html=1;points=[];perimeter=orthogonalPerimeter;fillColor=#dae8fc;strokeColor=#6c8ebf;" parent="n0NTn44MoIhT98F6Jfsc-2" vertex="1">
          <mxGeometry x="60" y="80" width="10" height="210" as="geometry" />
        </mxCell>
        <mxCell id="n0NTn44MoIhT98F6Jfsc-4" value="" style="html=1;points=[];perimeter=orthogonalPerimeter;fillColor=#dae8fc;strokeColor=#6c8ebf;" parent="n0NTn44MoIhT98F6Jfsc-2" vertex="1">
          <mxGeometry x="60" y="780" width="10" height="50" as="geometry" />
        </mxCell>
        <mxCell id="n0NTn44MoIhT98F6Jfsc-7" value="&lt;font style=&quot;font-size: 11px;&quot;&gt;&amp;nbsp;onClickEditAccount()&amp;nbsp;: void&lt;/font&gt;" style="html=1;verticalAlign=bottom;endArrow=block;rounded=0;strokeColor=default;labelBackgroundColor=none;fontSize=9;" parent="1" edge="1">
          <mxGeometry x="0.0013" width="80" relative="1" as="geometry">
            <mxPoint x="60.166666666666686" y="160" as="sourcePoint" />
            <mxPoint x="230" y="160" as="targetPoint" />
            <Array as="points" />
            <mxPoint as="offset" />
          </mxGeometry>
        </mxCell>
        <mxCell id="n0NTn44MoIhT98F6Jfsc-8" value="&lt;font size=&quot;1&quot; style=&quot;&quot;&gt;&lt;span style=&quot;font-size: 12px;&quot;&gt;Manager&lt;/span&gt;&lt;/font&gt;" style="shape=umlLifeline;perimeter=lifelinePerimeter;whiteSpace=wrap;html=1;container=1;collapsible=0;recursiveResize=0;outlineConnect=0;fillColor=#CCFCBB;strokeColor=#82B366;fontStyle=0" parent="1" vertex="1">
          <mxGeometry x="520" y="80" width="100" height="881" as="geometry" />
        </mxCell>
        <mxCell id="n0NTn44MoIhT98F6Jfsc-9" value="" style="html=1;points=[];perimeter=orthogonalPerimeter;fontSize=9;fillColor=#dae8fc;strokeColor=#6c8ebf;" parent="n0NTn44MoIhT98F6Jfsc-8" vertex="1">
          <mxGeometry x="45" y="100" width="10" height="40" as="geometry" />
        </mxCell>
        <mxCell id="n0NTn44MoIhT98F6Jfsc-10" value="" style="html=1;points=[];perimeter=orthogonalPerimeter;fontSize=11;fillColor=#dae8fc;strokeColor=#6c8ebf;" parent="n0NTn44MoIhT98F6Jfsc-8" vertex="1">
          <mxGeometry x="45" y="270" width="10" height="40" as="geometry" />
        </mxCell>
        <mxCell id="n0NTn44MoIhT98F6Jfsc-11" value="" style="html=1;points=[];perimeter=orthogonalPerimeter;fontSize=9;fillColor=#dae8fc;strokeColor=#6c8ebf;" parent="n0NTn44MoIhT98F6Jfsc-8" vertex="1">
          <mxGeometry x="45" y="405" width="10" height="40" as="geometry" />
        </mxCell>
        <mxCell id="n0NTn44MoIhT98F6Jfsc-12" value="&lt;font style=&quot;font-size: 15px;&quot;&gt;SendAction(action: Action) : void&lt;/font&gt;" style="html=1;verticalAlign=bottom;endArrow=block;rounded=0;fontSize=9;entryX=-0.086;entryY=0.055;entryDx=0;entryDy=0;entryPerimeter=0;exitX=1.153;exitY=0.113;exitDx=0;exitDy=0;exitPerimeter=0;" parent="1" source="n0NTn44MoIhT98F6Jfsc-3" target="n0NTn44MoIhT98F6Jfsc-9" edge="1">
          <mxGeometry width="80" relative="1" as="geometry">
            <mxPoint x="240" y="180" as="sourcePoint" />
            <mxPoint x="410" y="180" as="targetPoint" />
            <Array as="points" />
          </mxGeometry>
        </mxCell>
        <mxCell id="n0NTn44MoIhT98F6Jfsc-13" value="ManagerActionFactory" style="shape=umlLifeline;perimeter=lifelinePerimeter;whiteSpace=wrap;html=1;container=1;collapsible=0;recursiveResize=0;outlineConnect=0;fontSize=12;fillColor=#CCFCBB;strokeColor=#82B366;fontStyle=0" parent="1" vertex="1">
          <mxGeometry x="716" y="80" width="130" height="862" as="geometry" />
        </mxCell>
        <mxCell id="n0NTn44MoIhT98F6Jfsc-14" value="" style="html=1;points=[];perimeter=orthogonalPerimeter;fontSize=11;fillColor=#dae8fc;strokeColor=#6c8ebf;" parent="n0NTn44MoIhT98F6Jfsc-13" vertex="1">
          <mxGeometry x="60" y="130" width="10" height="50" as="geometry" />
        </mxCell>
        <mxCell id="n0NTn44MoIhT98F6Jfsc-16" value="" style="html=1;points=[];perimeter=orthogonalPerimeter;fontSize=11;fillColor=#dae8fc;strokeColor=#6c8ebf;" parent="n0NTn44MoIhT98F6Jfsc-13" vertex="1">
          <mxGeometry x="60" y="437" width="10" height="50" as="geometry" />
        </mxCell>
        <mxCell id="n0NTn44MoIhT98F6Jfsc-17" value="&lt;font style=&quot;font-size: 11px;&quot;&gt;HandleAction (action : Action ) : void&amp;nbsp;&lt;/font&gt;" style="html=1;verticalAlign=bottom;endArrow=block;rounded=0;fontSize=11;" parent="n0NTn44MoIhT98F6Jfsc-13" edge="1">
          <mxGeometry width="80" relative="1" as="geometry">
            <mxPoint x="-140" y="437" as="sourcePoint" />
            <mxPoint x="60" y="437" as="targetPoint" />
            <Array as="points">
              <mxPoint x="-90" y="437" />
            </Array>
          </mxGeometry>
        </mxCell>
        <mxCell id="n0NTn44MoIhT98F6Jfsc-15" value="&lt;font style=&quot;font-size: 13px;&quot;&gt;&amp;nbsp;handleAction( action : Action&amp;nbsp;) : void&lt;/font&gt;" style="html=1;verticalAlign=bottom;endArrow=block;rounded=0;fontSize=11;" parent="n0NTn44MoIhT98F6Jfsc-13" source="n0NTn44MoIhT98F6Jfsc-35" edge="1">
          <mxGeometry width="80" relative="1" as="geometry">
            <mxPoint x="479.79999999999995" y="270" as="sourcePoint" />
            <mxPoint x="-140" y="270" as="targetPoint" />
          </mxGeometry>
        </mxCell>
        <mxCell id="n0NTn44MoIhT98F6Jfsc-18" value="&lt;font style=&quot;font-size: 11px;&quot;&gt;HandleAction (action : Action ) : void&amp;nbsp;&lt;/font&gt;" style="html=1;verticalAlign=bottom;endArrow=block;rounded=0;fontSize=11;" parent="1" edge="1">
          <mxGeometry width="80" relative="1" as="geometry">
            <mxPoint x="576" y="210" as="sourcePoint" />
            <mxPoint x="776" y="210" as="targetPoint" />
            <Array as="points">
              <mxPoint x="626" y="210" />
            </Array>
          </mxGeometry>
        </mxCell>
        <mxCell id="n0NTn44MoIhT98F6Jfsc-19" value="5: ShowConfirmOrdersButton()" style="html=1;verticalAlign=bottom;endArrow=block;rounded=0;fontSize=11;exitX=0.08;exitY=0.874;exitDx=0;exitDy=0;exitPerimeter=0;" parent="1" edge="1">
          <mxGeometry width="80" relative="1" as="geometry">
            <mxPoint x="532.8" y="-51.00000000000006" as="sourcePoint" />
            <mxPoint x="347" y="-50.920000000000016" as="targetPoint" />
          </mxGeometry>
        </mxCell>
        <mxCell id="n0NTn44MoIhT98F6Jfsc-20" value="&lt;font style=&quot;font-size: 7px;&quot;&gt;Utente Loggato&lt;/font&gt;" style="text;html=1;align=center;verticalAlign=middle;resizable=0;points=[];autosize=1;strokeColor=none;fillColor=default;spacingTop=-6;spacingLeft=-4;spacingBottom=-4;spacingRight=-4;" parent="1" vertex="1">
          <mxGeometry x="30" y="120" width="60" height="10" as="geometry" />
        </mxCell>
        <mxCell id="n0NTn44MoIhT98F6Jfsc-21" value="ActionsStaff" style="shape=umlLifeline;perimeter=lifelinePerimeter;whiteSpace=wrap;html=1;container=1;collapsible=0;recursiveResize=0;outlineConnect=0;fontSize=12;fillColor=#CCFCBB;strokeColor=#82B366;fontStyle=0" parent="1" vertex="1">
          <mxGeometry x="926" y="80" width="130" height="814" as="geometry" />
        </mxCell>
        <mxCell id="n0NTn44MoIhT98F6Jfsc-22" value="" style="html=1;points=[];perimeter=orthogonalPerimeter;fontSize=11;fillColor=#dae8fc;strokeColor=#6c8ebf;" parent="n0NTn44MoIhT98F6Jfsc-21" vertex="1">
          <mxGeometry x="60" y="170" width="10" height="50" as="geometry" />
        </mxCell>
        <mxCell id="n0NTn44MoIhT98F6Jfsc-23" value="&lt;font style=&quot;font-size: 11px;&quot;&gt;handleAction(action : Action&amp;nbsp;) : void&lt;/font&gt;" style="html=1;verticalAlign=bottom;endArrow=block;rounded=0;fontSize=11;" parent="n0NTn44MoIhT98F6Jfsc-21" edge="1">
          <mxGeometry width="80" relative="1" as="geometry">
            <mxPoint x="70" y="210" as="sourcePoint" />
            <mxPoint x="270" y="210" as="targetPoint" />
            <Array as="points">
              <mxPoint x="120" y="210" />
            </Array>
          </mxGeometry>
        </mxCell>
        <mxCell id="n0NTn44MoIhT98F6Jfsc-24" value="" style="html=1;points=[];perimeter=orthogonalPerimeter;fontSize=11;fillColor=#dae8fc;strokeColor=#6c8ebf;" parent="n0NTn44MoIhT98F6Jfsc-21" vertex="1">
          <mxGeometry x="60" y="480" width="10" height="50" as="geometry" />
        </mxCell>
        <mxCell id="n0NTn44MoIhT98F6Jfsc-25" value="&lt;font style=&quot;font-size: 11px;&quot;&gt;MapAction( action : Action) : void&lt;/font&gt;" style="html=1;verticalAlign=bottom;endArrow=block;rounded=0;fontSize=11;" parent="n0NTn44MoIhT98F6Jfsc-21" edge="1">
          <mxGeometry width="80" relative="1" as="geometry">
            <mxPoint x="-140" y="480" as="sourcePoint" />
            <mxPoint x="60" y="480" as="targetPoint" />
            <Array as="points">
              <mxPoint x="-90" y="480" />
            </Array>
          </mxGeometry>
        </mxCell>
        <mxCell id="n0NTn44MoIhT98F6Jfsc-26" value="&lt;font style=&quot;font-size: 12px;&quot;&gt;MapAction( action : Action) : void&lt;/font&gt;" style="html=1;verticalAlign=bottom;endArrow=block;rounded=0;fontSize=11;" parent="1" edge="1">
          <mxGeometry width="80" relative="1" as="geometry">
            <mxPoint x="786" y="250" as="sourcePoint" />
            <mxPoint x="986" y="250" as="targetPoint" />
            <Array as="points">
              <mxPoint x="836" y="250" />
            </Array>
          </mxGeometry>
        </mxCell>
        <mxCell id="n0NTn44MoIhT98F6Jfsc-27" value="ActionsAccountInfo" style="shape=umlLifeline;perimeter=lifelinePerimeter;whiteSpace=wrap;html=1;container=1;collapsible=0;recursiveResize=0;outlineConnect=0;fontSize=12;fillColor=#CCFCBB;strokeColor=#82B366;fontStyle=0" parent="1" vertex="1">
          <mxGeometry x="1116" y="80" width="170" height="814" as="geometry" />
        </mxCell>
        <mxCell id="n0NTn44MoIhT98F6Jfsc-28" value="" style="html=1;points=[];perimeter=orthogonalPerimeter;fontSize=11;fillColor=#dae8fc;strokeColor=#6c8ebf;" parent="n0NTn44MoIhT98F6Jfsc-27" vertex="1">
          <mxGeometry x="80" y="200" width="10" height="60" as="geometry" />
        </mxCell>
        <mxCell id="n0NTn44MoIhT98F6Jfsc-29" value="" style="html=1;points=[];perimeter=orthogonalPerimeter;fontSize=11;" parent="1" vertex="1">
          <mxGeometry x="680" y="-70" width="10" height="80" as="geometry" />
        </mxCell>
        <mxCell id="n0NTn44MoIhT98F6Jfsc-30" value="&lt;font style=&quot;font-size: 9px;&quot;&gt;changeOnMain( indexMain : int ) : void&lt;/font&gt;" style="html=1;verticalAlign=bottom;endArrow=block;rounded=0;fontSize=11;exitX=0.116;exitY=0.764;exitDx=0;exitDy=0;exitPerimeter=0;entryX=1.029;entryY=0.001;entryDx=0;entryDy=0;entryPerimeter=0;fontColor=default;labelBackgroundColor=none;" parent="1" source="n0NTn44MoIhT98F6Jfsc-10" target="n0NTn44MoIhT98F6Jfsc-32" edge="1">
          <mxGeometry x="-0.0021" width="80" relative="1" as="geometry">
            <mxPoint x="405.79999999999995" y="379.99999999999994" as="sourcePoint" />
            <mxPoint x="240" y="380" as="targetPoint" />
            <mxPoint as="offset" />
          </mxGeometry>
        </mxCell>
        <mxCell id="n0NTn44MoIhT98F6Jfsc-31" value="Fragment_EditAccountInfo" style="shape=umlLifeline;perimeter=lifelinePerimeter;whiteSpace=wrap;html=1;container=1;collapsible=0;recursiveResize=0;outlineConnect=0;fillColor=#FCFFB0;strokeColor=#D6B656;" parent="1" vertex="1">
          <mxGeometry x="320" y="80" width="160" height="878" as="geometry" />
        </mxCell>
        <mxCell id="n0NTn44MoIhT98F6Jfsc-32" value="" style="html=1;points=[];perimeter=orthogonalPerimeter;fillColor=#dae8fc;strokeColor=#6c8ebf;" parent="n0NTn44MoIhT98F6Jfsc-31" vertex="1">
          <mxGeometry x="75" y="300" width="10" height="460" as="geometry" />
        </mxCell>
        <mxCell id="n0NTn44MoIhT98F6Jfsc-33" value="&lt;font style=&quot;font-size: 14px;&quot;&gt;-&amp;nbsp;onClickEdit()&amp;nbsp;: void&lt;/font&gt;" style="html=1;verticalAlign=bottom;endArrow=block;rounded=0;strokeColor=default;labelBackgroundColor=none;fontSize=9;" parent="1" target="n0NTn44MoIhT98F6Jfsc-31" edge="1">
          <mxGeometry x="0.0013" width="80" relative="1" as="geometry">
            <mxPoint x="62.996666666666684" y="471" as="sourcePoint" />
            <mxPoint x="232.83" y="471" as="targetPoint" />
            <Array as="points">
              <mxPoint x="142.83" y="471" />
            </Array>
            <mxPoint as="offset" />
          </mxGeometry>
        </mxCell>
        <mxCell id="n0NTn44MoIhT98F6Jfsc-34" value="&lt;font style=&quot;font-size: 11px;&quot;&gt;SendAction(action: Action) : void&lt;/font&gt;" style="html=1;verticalAlign=bottom;endArrow=block;rounded=0;fontSize=9;entryX=-0.086;entryY=0.055;entryDx=0;entryDy=0;entryPerimeter=0;exitX=1.114;exitY=0.423;exitDx=0;exitDy=0;exitPerimeter=0;" parent="1" target="n0NTn44MoIhT98F6Jfsc-11" edge="1">
          <mxGeometry width="80" relative="1" as="geometry">
            <mxPoint x="406" y="487" as="sourcePoint" />
            <mxPoint x="575" y="486" as="targetPoint" />
            <Array as="points" />
          </mxGeometry>
        </mxCell>
        <mxCell id="n0NTn44MoIhT98F6Jfsc-35" value="OpenEditAccount_ActionHandler" style="shape=umlLifeline;perimeter=lifelinePerimeter;whiteSpace=wrap;html=1;container=1;collapsible=0;recursiveResize=0;outlineConnect=0;fontSize=12;fillColor=#CCFCBB;strokeColor=#82B366;fontStyle=0" parent="1" vertex="1">
          <mxGeometry x="1340" y="80" width="180" height="824" as="geometry" />
        </mxCell>
        <mxCell id="n0NTn44MoIhT98F6Jfsc-49" value="&lt;font style=&quot;font-size: 11px;&quot;&gt;handleAction(action : Action&amp;nbsp;) : void&lt;/font&gt;" style="html=1;verticalAlign=bottom;endArrow=block;rounded=0;fontSize=11;exitX=0.923;exitY=0.343;exitDx=0;exitDy=0;exitPerimeter=0;" parent="n0NTn44MoIhT98F6Jfsc-35" source="n0NTn44MoIhT98F6Jfsc-28" edge="1">
          <mxGeometry width="80" relative="1" as="geometry">
            <mxPoint x="-130" y="220" as="sourcePoint" />
            <mxPoint x="84" y="220" as="targetPoint" />
            <Array as="points">
              <mxPoint x="-66" y="220" />
            </Array>
          </mxGeometry>
        </mxCell>
        <mxCell id="n0NTn44MoIhT98F6Jfsc-48" value="" style="html=1;points=[];perimeter=orthogonalPerimeter;fontSize=11;fillColor=#dae8fc;strokeColor=#6c8ebf;" parent="n0NTn44MoIhT98F6Jfsc-35" vertex="1">
          <mxGeometry x="84" y="220" width="10" height="50" as="geometry" />
        </mxCell>
        <mxCell id="n0NTn44MoIhT98F6Jfsc-37" value="ServerCommunication" style="shape=umlLifeline;perimeter=lifelinePerimeter;whiteSpace=wrap;html=1;container=1;collapsible=0;recursiveResize=0;outlineConnect=0;fontSize=12;fillColor=#CCFCBB;strokeColor=#82B366;fontStyle=0" parent="1" vertex="1">
          <mxGeometry x="1950" y="80" width="170" height="829" as="geometry" />
        </mxCell>
        <mxCell id="n0NTn44MoIhT98F6Jfsc-38" value="" style="html=1;points=[];perimeter=orthogonalPerimeter;fontSize=11;fillColor=#dae8fc;strokeColor=#6c8ebf;" parent="n0NTn44MoIhT98F6Jfsc-37" vertex="1">
          <mxGeometry x="80" y="576" width="10" height="90" as="geometry" />
        </mxCell>
        <mxCell id="n0NTn44MoIhT98F6Jfsc-39" value="&lt;div style=&quot;background-color:#282c34;color:#bbbbbb;font-family:&#39;JetBrains Mono&#39;,monospace;font-size:9.8pt;&quot;&gt;&lt;pre&gt;&lt;br&gt;&lt;/pre&gt;&lt;/div&gt;" style="html=1;verticalAlign=bottom;endArrow=block;rounded=0;fontSize=11;exitX=0.08;exitY=0.874;exitDx=0;exitDy=0;exitPerimeter=0;dashed=1;entryX=1.018;entryY=0.607;entryDx=0;entryDy=0;entryPerimeter=0;" parent="n0NTn44MoIhT98F6Jfsc-37" target="n0NTn44MoIhT98F6Jfsc-52" edge="1">
          <mxGeometry width="80" relative="1" as="geometry">
            <mxPoint x="80" y="666" as="sourcePoint" />
            <mxPoint x="-516" y="666" as="targetPoint" />
          </mxGeometry>
        </mxCell>
        <mxCell id="n0NTn44MoIhT98F6Jfsc-40" value="return&amp;nbsp; jsonBODY" style="edgeLabel;html=1;align=center;verticalAlign=middle;resizable=0;points=[];" parent="n0NTn44MoIhT98F6Jfsc-39" vertex="1" connectable="0">
          <mxGeometry x="0.0954" y="2" relative="1" as="geometry">
            <mxPoint x="3" y="-12" as="offset" />
          </mxGeometry>
        </mxCell>
        <mxCell id="n0NTn44MoIhT98F6Jfsc-41" value="&lt;font style=&quot;font-size: 9px;&quot;&gt;&amp;nbsp; &amp;nbsp; &amp;nbsp; sendNewStuffToServer( newUtente : Utente, context : Context ) : bool&lt;/font&gt;" style="html=1;verticalAlign=bottom;endArrow=block;rounded=0;fontSize=11;" parent="1" target="n0NTn44MoIhT98F6Jfsc-37" edge="1">
          <mxGeometry width="80" relative="1" as="geometry">
            <mxPoint x="1750" y="657" as="sourcePoint" />
            <mxPoint x="1870" y="655" as="targetPoint" />
            <Array as="points">
              <mxPoint x="1710" y="657" />
              <mxPoint x="1750" y="657" />
            </Array>
          </mxGeometry>
        </mxCell>
        <mxCell id="n0NTn44MoIhT98F6Jfsc-42" value="&lt;font style=&quot;font-size: 11px;&quot;&gt;handleAction(action : Action&amp;nbsp;) : void&lt;/font&gt;" style="html=1;verticalAlign=bottom;endArrow=block;rounded=0;fontSize=11;entryX=0.1;entryY=0.027;entryDx=0;entryDy=0;entryPerimeter=0;" parent="1" target="n0NTn44MoIhT98F6Jfsc-52" edge="1">
          <mxGeometry width="80" relative="1" as="geometry">
            <mxPoint x="997" y="596" as="sourcePoint" />
            <mxPoint x="1426.13" y="599.4000000000001" as="targetPoint" />
            <Array as="points">
              <mxPoint x="1211" y="596" />
            </Array>
          </mxGeometry>
        </mxCell>
        <mxCell id="n0NTn44MoIhT98F6Jfsc-43" value="&lt;div style=&quot;background-color:#282c34;color:#bbbbbb;font-family:&#39;JetBrains Mono&#39;,monospace;font-size:9.8pt;&quot;&gt;&lt;pre&gt;&lt;br&gt;&lt;/pre&gt;&lt;/div&gt;" style="html=1;verticalAlign=bottom;endArrow=block;rounded=0;fontSize=11;" parent="1" edge="1" source="n0NTn44MoIhT98F6Jfsc-50">
          <mxGeometry width="80" relative="1" as="geometry">
            <mxPoint x="1425" y="788" as="sourcePoint" />
            <mxPoint x="406" y="788" as="targetPoint" />
          </mxGeometry>
        </mxCell>
        <mxCell id="n0NTn44MoIhT98F6Jfsc-44" value="action.callBack( true )" style="edgeLabel;html=1;align=center;verticalAlign=middle;resizable=0;points=[];" parent="n0NTn44MoIhT98F6Jfsc-43" vertex="1" connectable="0">
          <mxGeometry x="0.0954" y="2" relative="1" as="geometry">
            <mxPoint x="3" y="-12" as="offset" />
          </mxGeometry>
        </mxCell>
        <mxCell id="n0NTn44MoIhT98F6Jfsc-45" value="" style="html=1;points=[];perimeter=orthogonalPerimeter;fontSize=9;fillColor=#dae8fc;strokeColor=#6c8ebf;" parent="1" vertex="1">
          <mxGeometry x="565" y="828" width="10" height="40" as="geometry" />
        </mxCell>
        <mxCell id="n0NTn44MoIhT98F6Jfsc-46" value="&lt;div style=&quot;background-color:#282c34;color:#bbbbbb;font-family:&#39;JetBrains Mono&#39;,monospace;font-size:9.8pt;&quot;&gt;&lt;pre&gt;&lt;br&gt;&lt;/pre&gt;&lt;/div&gt;" style="html=1;verticalAlign=bottom;endArrow=block;rounded=0;fontSize=11;entryX=1.093;entryY=0.002;entryDx=0;entryDy=0;entryPerimeter=0;" parent="1" target="n0NTn44MoIhT98F6Jfsc-45" edge="1" source="n0NTn44MoIhT98F6Jfsc-50">
          <mxGeometry width="80" relative="1" as="geometry">
            <mxPoint x="1425.4" y="830.4200000000001" as="sourcePoint" />
            <mxPoint x="406" y="829" as="targetPoint" />
          </mxGeometry>
        </mxCell>
        <mxCell id="n0NTn44MoIhT98F6Jfsc-47" value="action.getManager.goBack( true )" style="edgeLabel;html=1;align=center;verticalAlign=middle;resizable=0;points=[];" parent="n0NTn44MoIhT98F6Jfsc-46" vertex="1" connectable="0">
          <mxGeometry x="0.0954" y="2" relative="1" as="geometry">
            <mxPoint x="3" y="-12" as="offset" />
          </mxGeometry>
        </mxCell>
        <mxCell id="n0NTn44MoIhT98F6Jfsc-50" value="OpenEditAccount_ActionHandler" style="shape=umlLifeline;perimeter=lifelinePerimeter;whiteSpace=wrap;html=1;container=1;collapsible=0;recursiveResize=0;outlineConnect=0;fontSize=12;fillColor=#CCFCBB;strokeColor=#82B366;fontStyle=0" parent="1" vertex="1">
          <mxGeometry x="1612" y="80" width="180" height="824" as="geometry" />
        </mxCell>
        <mxCell id="n0NTn44MoIhT98F6Jfsc-52" value="" style="html=1;points=[];perimeter=orthogonalPerimeter;fontSize=11;fillColor=#dae8fc;strokeColor=#6c8ebf;" parent="n0NTn44MoIhT98F6Jfsc-50" vertex="1">
          <mxGeometry x="87" y="509" width="10" height="260" as="geometry" />
        </mxCell>
        <mxCell id="n0NTn44MoIhT98F6Jfsc-5" value="&lt;div style=&quot;background-color:#282c34;color:#bbbbbb;font-family:&#39;JetBrains Mono&#39;,monospace;font-size:9.8pt;&quot;&gt;&lt;pre&gt;&lt;br&gt;&lt;/pre&gt;&lt;/div&gt;" style="html=1;verticalAlign=bottom;endArrow=block;rounded=0;fontSize=11;exitX=0.013;exitY=0.874;exitDx=0;exitDy=0;exitPerimeter=0;entryX=1.051;entryY=0.03;entryDx=0;entryDy=0;entryPerimeter=0;" parent="1" edge="1" target="n0NTn44MoIhT98F6Jfsc-4" source="n0NTn44MoIhT98F6Jfsc-45">
          <mxGeometry width="80" relative="1" as="geometry">
            <mxPoint x="554.4000000000001" y="863.0000000000001" as="sourcePoint" />
            <mxPoint x="231" y="863" as="targetPoint" />
          </mxGeometry>
        </mxCell>
        <mxCell id="n0NTn44MoIhT98F6Jfsc-6" value="goBack(indexFrom : int ) : void" style="edgeLabel;html=1;align=center;verticalAlign=middle;resizable=0;points=[];" parent="n0NTn44MoIhT98F6Jfsc-5" vertex="1" connectable="0">
          <mxGeometry x="0.0954" y="2" relative="1" as="geometry">
            <mxPoint x="3" y="-12" as="offset" />
          </mxGeometry>
        </mxCell>
      </root>
    </mxGraphModel>
  </diagram>
  <diagram id="rs8A5NGLkpZ9P13x6OjZ" name="Elimina Prodotto Inventario">
    <mxGraphModel dx="1478" dy="899" grid="1" gridSize="10" guides="1" tooltips="1" connect="1" arrows="1" fold="1" page="1" pageScale="1" pageWidth="850" pageHeight="1100" math="0" shadow="0">
      <root>
        <mxCell id="0" />
        <mxCell id="1" parent="0" />
        <mxCell id="eR-a7IDGgxrVSV1cPNec-1" value="sendDeleteIngredientToServer(id_restaurant : int ,id_ingredient: int ) : bool" style="html=1;verticalAlign=bottom;endArrow=block;rounded=0;fontSize=11;entryX=-0.015;entryY=0.011;entryDx=0;entryDy=0;entryPerimeter=0;" edge="1" parent="1" target="eR-a7IDGgxrVSV1cPNec-25">
          <mxGeometry width="80" relative="1" as="geometry">
            <mxPoint x="1263.7307692307693" y="379" as="sourcePoint" />
            <mxPoint x="1803.5" y="379" as="targetPoint" />
            <Array as="points" />
          </mxGeometry>
        </mxCell>
        <mxCell id="eR-a7IDGgxrVSV1cPNec-2" value="Adapter_Category" style="shape=umlLifeline;perimeter=lifelinePerimeter;whiteSpace=wrap;html=1;container=1;collapsible=0;recursiveResize=0;outlineConnect=0;fillColor=#FCFFB0;strokeColor=#D6B656;" vertex="1" parent="1">
          <mxGeometry x="423" y="80" width="110" height="440" as="geometry" />
        </mxCell>
        <mxCell id="eR-a7IDGgxrVSV1cPNec-3" value="" style="html=1;points=[];perimeter=orthogonalPerimeter;fillColor=#dae8fc;strokeColor=#6c8ebf;" vertex="1" parent="eR-a7IDGgxrVSV1cPNec-2">
          <mxGeometry x="50" y="80" width="10" height="330" as="geometry" />
        </mxCell>
        <mxCell id="eR-a7IDGgxrVSV1cPNec-4" value="" style="shape=umlLifeline;participant=umlActor;perimeter=lifelinePerimeter;whiteSpace=wrap;html=1;container=1;collapsible=0;recursiveResize=0;verticalAlign=top;spacingTop=36;outlineConnect=0;" vertex="1" parent="1">
          <mxGeometry x="50" y="80" width="20" height="440" as="geometry" />
        </mxCell>
        <mxCell id="eR-a7IDGgxrVSV1cPNec-5" value="Fragment_ListInventory" style="shape=umlLifeline;perimeter=lifelinePerimeter;whiteSpace=wrap;html=1;container=1;collapsible=0;recursiveResize=0;outlineConnect=0;fillColor=#FCFFB0;strokeColor=#D6B656;" vertex="1" parent="1">
          <mxGeometry x="180" y="80" width="130" height="440" as="geometry" />
        </mxCell>
        <mxCell id="eR-a7IDGgxrVSV1cPNec-6" value="" style="html=1;points=[];perimeter=orthogonalPerimeter;fillColor=#dae8fc;strokeColor=#6c8ebf;" vertex="1" parent="eR-a7IDGgxrVSV1cPNec-5">
          <mxGeometry x="60" y="80" width="10" height="340" as="geometry" />
        </mxCell>
        <mxCell id="eR-a7IDGgxrVSV1cPNec-7" value="onClickDeleteIngredient()&amp;nbsp;: void" style="html=1;verticalAlign=bottom;endArrow=block;rounded=0;strokeColor=default;labelBackgroundColor=none;fontSize=9;entryX=-0.195;entryY=0.103;entryDx=0;entryDy=0;entryPerimeter=0;" edge="1" parent="eR-a7IDGgxrVSV1cPNec-5">
          <mxGeometry x="0.0013" width="80" relative="1" as="geometry">
            <mxPoint x="-119.83333333333331" y="164" as="sourcePoint" />
            <mxPoint x="58.049999999999955" y="163.74000000000024" as="targetPoint" />
            <Array as="points">
              <mxPoint x="-40" y="164" />
            </Array>
            <mxPoint as="offset" />
          </mxGeometry>
        </mxCell>
        <mxCell id="eR-a7IDGgxrVSV1cPNec-8" value="onClickDeleteIngredients()&amp;nbsp;: void" style="html=1;verticalAlign=bottom;endArrow=block;rounded=0;strokeColor=default;labelBackgroundColor=none;fontSize=9;entryX=0.016;entryY=0;entryDx=0;entryDy=0;entryPerimeter=0;" edge="1" parent="1" target="eR-a7IDGgxrVSV1cPNec-6">
          <mxGeometry x="0.0013" width="80" relative="1" as="geometry">
            <mxPoint x="60.166666666666686" y="160" as="sourcePoint" />
            <mxPoint x="230" y="160" as="targetPoint" />
            <Array as="points">
              <mxPoint x="140" y="160" />
            </Array>
            <mxPoint as="offset" />
          </mxGeometry>
        </mxCell>
        <mxCell id="eR-a7IDGgxrVSV1cPNec-9" value="&lt;font size=&quot;1&quot; style=&quot;&quot;&gt;&lt;span style=&quot;font-size: 12px;&quot;&gt;Manager&lt;/span&gt;&lt;/font&gt;" style="shape=umlLifeline;perimeter=lifelinePerimeter;whiteSpace=wrap;html=1;container=1;collapsible=0;recursiveResize=0;outlineConnect=0;fillColor=#CCFCBB;strokeColor=#82B366;fontStyle=0" vertex="1" parent="1">
          <mxGeometry x="583" y="80" width="100" height="440" as="geometry" />
        </mxCell>
        <mxCell id="eR-a7IDGgxrVSV1cPNec-10" value="" style="html=1;points=[];perimeter=orthogonalPerimeter;fontSize=9;fillColor=#dae8fc;strokeColor=#6c8ebf;" vertex="1" parent="eR-a7IDGgxrVSV1cPNec-9">
          <mxGeometry x="45" y="172" width="10" height="40" as="geometry" />
        </mxCell>
        <mxCell id="eR-a7IDGgxrVSV1cPNec-11" value="&lt;font style=&quot;font-size: 11px;&quot;&gt;SendAction(action: Action) : void&lt;/font&gt;" style="html=1;verticalAlign=bottom;endArrow=block;rounded=0;fontSize=9;" edge="1" parent="1">
          <mxGeometry width="80" relative="1" as="geometry">
            <mxPoint x="250" y="258" as="sourcePoint" />
            <mxPoint x="630" y="258" as="targetPoint" />
            <Array as="points" />
          </mxGeometry>
        </mxCell>
        <mxCell id="eR-a7IDGgxrVSV1cPNec-12" value="ManagerActionFactory" style="shape=umlLifeline;perimeter=lifelinePerimeter;whiteSpace=wrap;html=1;container=1;collapsible=0;recursiveResize=0;outlineConnect=0;fontSize=12;fillColor=#CCFCBB;strokeColor=#82B366;fontStyle=0" vertex="1" parent="1">
          <mxGeometry x="779" y="80" width="130" height="440" as="geometry" />
        </mxCell>
        <mxCell id="eR-a7IDGgxrVSV1cPNec-13" value="" style="html=1;points=[];perimeter=orthogonalPerimeter;fontSize=11;fillColor=#dae8fc;strokeColor=#6c8ebf;" vertex="1" parent="eR-a7IDGgxrVSV1cPNec-12">
          <mxGeometry x="60" y="202" width="10" height="50" as="geometry" />
        </mxCell>
        <mxCell id="eR-a7IDGgxrVSV1cPNec-14" value="&lt;font style=&quot;font-size: 13px;&quot;&gt;action.callBack( id_ingredient )&lt;span style=&quot;white-space: pre;&quot;&gt;&#x9;&lt;/span&gt;&lt;/font&gt;" style="html=1;verticalAlign=bottom;endArrow=block;rounded=0;fontSize=11;" edge="1" parent="eR-a7IDGgxrVSV1cPNec-12">
          <mxGeometry x="0.1079" width="80" relative="1" as="geometry">
            <mxPoint x="479.79999999999995" y="354" as="sourcePoint" />
            <mxPoint x="-529" y="354" as="targetPoint" />
            <mxPoint as="offset" />
          </mxGeometry>
        </mxCell>
        <mxCell id="eR-a7IDGgxrVSV1cPNec-15" value="&lt;font style=&quot;font-size: 11px;&quot;&gt;HandleAction (action : Action ) : void&amp;nbsp;&lt;/font&gt;" style="html=1;verticalAlign=bottom;endArrow=block;rounded=0;fontSize=11;" edge="1" parent="1">
          <mxGeometry width="80" relative="1" as="geometry">
            <mxPoint x="639" y="282" as="sourcePoint" />
            <mxPoint x="839" y="282" as="targetPoint" />
            <Array as="points">
              <mxPoint x="689" y="282" />
            </Array>
          </mxGeometry>
        </mxCell>
        <mxCell id="eR-a7IDGgxrVSV1cPNec-16" value="&lt;font style=&quot;font-size: 7px;&quot;&gt;Utente Loggato&lt;/font&gt;" style="text;html=1;align=center;verticalAlign=middle;resizable=0;points=[];autosize=1;strokeColor=none;fillColor=default;spacingTop=-6;spacingLeft=-4;spacingBottom=-4;spacingRight=-4;" vertex="1" parent="1">
          <mxGeometry x="30" y="120" width="60" height="10" as="geometry" />
        </mxCell>
        <mxCell id="eR-a7IDGgxrVSV1cPNec-17" value="ActionsListInventory" style="shape=umlLifeline;perimeter=lifelinePerimeter;whiteSpace=wrap;html=1;container=1;collapsible=0;recursiveResize=0;outlineConnect=0;fontSize=12;fillColor=#CCFCBB;strokeColor=#82B366;fontStyle=0" vertex="1" parent="1">
          <mxGeometry x="989" y="80" width="130" height="440" as="geometry" />
        </mxCell>
        <mxCell id="eR-a7IDGgxrVSV1cPNec-18" value="" style="html=1;points=[];perimeter=orthogonalPerimeter;fontSize=11;fillColor=#dae8fc;strokeColor=#6c8ebf;" vertex="1" parent="eR-a7IDGgxrVSV1cPNec-17">
          <mxGeometry x="60" y="242" width="10" height="50" as="geometry" />
        </mxCell>
        <mxCell id="eR-a7IDGgxrVSV1cPNec-19" value="&lt;font style=&quot;font-size: 11px;&quot;&gt;handleAction(action : Action&amp;nbsp;) : void&lt;/font&gt;" style="html=1;verticalAlign=bottom;endArrow=block;rounded=0;fontSize=11;" edge="1" parent="eR-a7IDGgxrVSV1cPNec-17">
          <mxGeometry width="80" relative="1" as="geometry">
            <mxPoint x="70" y="282" as="sourcePoint" />
            <mxPoint x="270" y="282" as="targetPoint" />
            <Array as="points">
              <mxPoint x="120" y="282" />
            </Array>
          </mxGeometry>
        </mxCell>
        <mxCell id="eR-a7IDGgxrVSV1cPNec-20" value="&lt;font style=&quot;font-size: 11px;&quot;&gt;MapAction( action : Action) : void&lt;/font&gt;" style="html=1;verticalAlign=bottom;endArrow=block;rounded=0;fontSize=11;" edge="1" parent="1">
          <mxGeometry width="80" relative="1" as="geometry">
            <mxPoint x="849" y="322" as="sourcePoint" />
            <mxPoint x="1049" y="322" as="targetPoint" />
            <Array as="points">
              <mxPoint x="899" y="322" />
            </Array>
          </mxGeometry>
        </mxCell>
        <mxCell id="eR-a7IDGgxrVSV1cPNec-21" value="DeleteIngredient_ActionHandler" style="shape=umlLifeline;perimeter=lifelinePerimeter;whiteSpace=wrap;html=1;container=1;collapsible=0;recursiveResize=0;outlineConnect=0;fontSize=12;fillColor=#CCFCBB;strokeColor=#82B366;fontStyle=0" vertex="1" parent="1">
          <mxGeometry x="1179" y="80" width="170" height="440" as="geometry" />
        </mxCell>
        <mxCell id="eR-a7IDGgxrVSV1cPNec-22" value="" style="html=1;points=[];perimeter=orthogonalPerimeter;fontSize=11;fillColor=#dae8fc;strokeColor=#6c8ebf;" vertex="1" parent="eR-a7IDGgxrVSV1cPNec-21">
          <mxGeometry x="80" y="272" width="10" height="98" as="geometry" />
        </mxCell>
        <mxCell id="eR-a7IDGgxrVSV1cPNec-23" value="deleteItemFromRecycle(id_category : integer)&amp;nbsp;: void" style="html=1;verticalAlign=bottom;endArrow=block;rounded=0;strokeColor=default;labelBackgroundColor=none;fontSize=9;entryX=0.081;entryY=0.941;entryDx=0;entryDy=0;entryPerimeter=0;" edge="1" parent="1" target="eR-a7IDGgxrVSV1cPNec-3">
          <mxGeometry x="0.0013" width="80" relative="1" as="geometry">
            <mxPoint x="250" y="471" as="sourcePoint" />
            <mxPoint x="470" y="471" as="targetPoint" />
            <Array as="points" />
            <mxPoint as="offset" />
          </mxGeometry>
        </mxCell>
        <mxCell id="eR-a7IDGgxrVSV1cPNec-24" value="ServerCommunication" style="shape=umlLifeline;perimeter=lifelinePerimeter;whiteSpace=wrap;html=1;container=1;collapsible=0;recursiveResize=0;outlineConnect=0;fontSize=12;fillColor=#CCFCBB;strokeColor=#82B366;fontStyle=0" vertex="1" parent="1">
          <mxGeometry x="1583" y="80" width="170" height="400" as="geometry" />
        </mxCell>
        <mxCell id="eR-a7IDGgxrVSV1cPNec-25" value="" style="html=1;points=[];perimeter=orthogonalPerimeter;fontSize=11;fillColor=#dae8fc;strokeColor=#6c8ebf;" vertex="1" parent="eR-a7IDGgxrVSV1cPNec-24">
          <mxGeometry x="80" y="298" width="10" height="90" as="geometry" />
        </mxCell>
        <mxCell id="eR-a7IDGgxrVSV1cPNec-26" value="&lt;div style=&quot;background-color:#282c34;color:#bbbbbb;font-family:&#39;JetBrains Mono&#39;,monospace;font-size:9.8pt;&quot;&gt;&lt;pre&gt;&lt;br&gt;&lt;/pre&gt;&lt;/div&gt;" style="html=1;verticalAlign=bottom;endArrow=block;rounded=0;fontSize=11;exitX=0.08;exitY=0.874;exitDx=0;exitDy=0;exitPerimeter=0;dashed=1;" edge="1" parent="eR-a7IDGgxrVSV1cPNec-24">
          <mxGeometry width="80" relative="1" as="geometry">
            <mxPoint x="80" y="346" as="sourcePoint" />
            <mxPoint x="-310" y="346" as="targetPoint" />
          </mxGeometry>
        </mxCell>
        <mxCell id="eR-a7IDGgxrVSV1cPNec-27" value="return&amp;nbsp; jsonBODY" style="edgeLabel;html=1;align=center;verticalAlign=middle;resizable=0;points=[];" vertex="1" connectable="0" parent="eR-a7IDGgxrVSV1cPNec-26">
          <mxGeometry x="0.0954" y="2" relative="1" as="geometry">
            <mxPoint x="3" y="-12" as="offset" />
          </mxGeometry>
        </mxCell>
      </root>
    </mxGraphModel>
  </diagram>
</mxfile>
